{
  "accessors": [
    {
      "bufferView": 2,
      "componentType": 5126,
      "count": 65532,
      "max": [
        225.8545379638672,
        1258.213623046875,
        43.22834777832031
      ],
      "min": [
        -322.01116943359375,
        189.90853881835938,
        -249.343505859375
      ],
      "type": "VEC3"
    },
    {
      "bufferView": 2,
      "byteOffset": 786384,
      "componentType": 5126,
      "count": 65532,
      "max": [
        0.9999979734420776,
        0.9999988079071045,
        0.9999998807907104
      ],
      "min": [
        -0.9999780654907227,
        -0.9999974370002747,
        -0.9998637437820435
      ],
      "type": "VEC3"
    },
    {
      "bufferView": 1,
      "componentType": 5126,
      "count": 65532,
      "max": [
        0.9907379746437073,
        0.9999290108680725
      ],
      "min": [
        0.023255087435245514,
        0.002303000073879957
      ],
      "type": "VEC2"
    },
    {
      "bufferView": 0,
      "componentType": 5125,
      "count": 357222,
      "type": "SCALAR"
    },
    {
      "bufferView": 2,
      "byteOffset": 1572768,
      "componentType": 5126,
      "count": 24969,
      "max": [
        225.8545379638672,
        1258.213623046875,
        41.37101745605469
      ],
      "min": [
        -321.96612548828125,
        189.90853881835938,
        -249.343505859375
      ],
      "type": "VEC3"
    },
    {
      "bufferView": 2,
      "byteOffset": 1872396,
      "componentType": 5126,
      "count": 24969,
      "max": [
        0.999967098236084,
        0.9998639822006226,
        0.9999916553497314
      ],
      "min": [
        -0.9999980330467224,
        -0.9990292191505432,
        -0.9993637800216675
      ],
      "type": "VEC3"
    },
    {
      "bufferView": 1,
      "byteOffset": 524256,
      "componentType": 5126,
      "count": 24969,
      "max": [
        0.9907379746437073,
        0.9999290108680725
      ],
      "min": [
        0.0012209999840706587,
        0.002303000073879957
      ],
      "type": "VEC2"
    },
    {
      "bufferView": 0,
      "byteOffset": 1428888,
      "componentType": 5125,
      "count": 109548,
      "type": "SCALAR"
    }
  ],
  "asset": {
    "extras": {
      "author": "Quore (https://sketchfab.com/Quoreder)",
      "license": "CC-BY-NC-4.0 (http://creativecommons.org/licenses/by-nc/4.0/)",
      "source": "https://sketchfab.com/3d-models/toyota-gt86-hgk-body-kit-720ca16287834d8f9aefd65c3a899319",
      "title": "Toyota GT86 HGK Body Kit"
    },
    "generator": "Sketchfab-14.32.0",
    "version": "2.0"
  },
  "bufferViews": [
    {
      "buffer": 0,
      "byteLength": 1867080,
      "name": "floatBufferViews",
      "target": 34963
    },
    {
      "buffer": 0,
      "byteLength": 724008,
      "byteOffset": 1867080,
      "byteStride": 8,
      "name": "floatBufferViews",
      "target": 34962
    },
    {
      "buffer": 0,
      "byteLength": 2172024,
      "byteOffset": 2591088,
      "byteStride": 12,
      "name": "floatBufferViews",
      "target": 34962
    }
  ],
  "buffers": [
    {
      "byteLength": 4763112,
      "uri": "scene.bin"
    }
  ],
  "images": [
    {
      "uri": "textures/86_1.001_baseColor.jpeg"
    }
  ],
  "materials": [
    {
      "doubleSided": true,
      "name": "86_1.001",
      "pbrMetallicRoughness": {
        "baseColorTexture": {
          "index": 0
        },
        "metallicFactor": 0.0,
        "roughnessFactor": 0.7885257473118872
      }
    }
  ],
  "meshes": [
    {
      "name": "86 1_86_1.001_0",
      "primitives": [
        {
          "attributes": {
            "NORMAL": 1,
            "POSITION": 0,
            "TEXCOORD_0": 2
          },
          "indices": 3,
          "material": 0,
          "mode": 4
        }
      ]
    },
    {
      "name": "86 1_86_1.001_0",
      "primitives": [
        {
          "attributes": {
            "NORMAL": 5,
            "POSITION": 4,
            "TEXCOORD_0": 6
          },
          "indices": 7,
          "material": 0,
          "mode": 4
        }
      ]
    }
  ],
  "nodes": [
    {
      "children": [
        1
      ],
      "matrix": [
        1.0,
        0.0,
        0.0,
        0.0,
        0.0,
        2.220446049250313e-16,
        -1.0,
        0.0,
        0.0,
        1.0,
        2.220446049250313e-16,
        0.0,
        0.0,
        0.0,
        0.0,
        1.0
      ],
      "name": "Sketchfab_model"
    },
    {
      "children": [
        2
      ],
      "matrix": [
        0.009999999776482582,
        0.0,
        0.0,
        0.0,
        0.0,
        0.0,
        0.009999999776482582,
        0.0,
        0.0,
        -0.009999999776482582,
        0.0,
        0.0,
        0.0,
        0.0,
        0.0,
        1.0
      ],
      "name": "86 t1.fbx"
    },
    {
      "children": [
        3
      ],
      "name": "RootNode"
    },
    {
      "children": [
        4,
        5
      ],
      "matrix": [
        2.5399999618530273,
        0.0,
        0.0,
        0.0,
        0.0,
        -4.138185194403211e-07,
        -2.5399999618529936,
        0.0,
        0.0,
        2.5399999618529936,
        -4.138185194403211e-07,
        0.0,
        141.13064575195313,
        0.0,
        738.8699951171875,
        1.0
      ],
      "name": "86 1"
    },
    {
      "mesh": 0,
      "name": "86 1_86_1.001_0"
    },
    {
      "mesh": 1,
      "name": "86 1_86_1.001_0"
    }
  ],
  "samplers": [
    {
      "magFilter": 9729,
      "minFilter": 9987,
      "wrapS": 10497,
      "wrapT": 10497
    }
  ],
  "scene": 0,
  "scenes": [
    {
      "name": "Sketchfab_Scene",
      "nodes": [
        0
      ]
    }
  ],
  "textures": [
    {
      "sampler": 0,
      "source": 0
    }
  ]
}
